#!OML:ASF H:\Male1\Project 1\Capture day 1\Session 1\Male1.ASF
:FULLY-SPECIFIED
:DEGREES
853
root 12.3744 15.2318 -3.76078 -181.481 -121.717 178.915
lowerback 7.07088 2.62548 -5.637
upperback 2.37859 2.90743 -4.34509
thorax -1.55429 1.40566 -1.57585
lowerneck -6.10027 -8.18746 -3.17559
upperneck -2.16552 -10.9154 10.5657
head 1.20919 -5.38392 3.59684
rclavicle 7.41467e-014 -3.18055e-015
rhumerus -10.5912 19.4416 -40.456
rradius 40.9099
rwrist -21.9333
rhand -16.9357 5.28793
rfingers 7.12502
rthumb 9.29743 -24.4871
lclavicle 7.41467e-014 -3.18055e-015
lhumerus 7.92934 24.7306 15.6638
lradius 106.536
lwrist 15.0399
lhand -52.0029 -28.7067
lfingers 7.12502
lthumb -24.5102 -0.255238
rfemur -20.9019 10.2747 18.09
rtibia 34.0827
rfoot -45.2457 -30.1353
rtoes 19.2869
lfemur 1.56812 -15.7663 -22.3954
ltibia 26.682
lfoot -29.7489 28.6657
ltoes -12.6484
854
root 12.269 15.2123 -3.70555 -181.942 -120.705 179.355
lowerback 6.76605 2.50379 -5.4511
upperback 2.09593 2.77371 -4.33018
thorax -1.66827 1.34638 -1.64534
lowerneck -6.28248 -7.77045 -2.76415
upperneck -1.79579 -10.3995 10.2165
head 1.27431 -5.11521 3.41675
rclavicle -4.17448e-015 2.70347e-014
rhumerus -11.452 19.4565 -40.4974
rradius 41.7764
rwrist -22.6657
rhand -17.6161 5.30261
rfingers 7.12502
rthumb 8.64078 -24.5006
lclavicle -4.17448e-015 2.70347e-014
lhumerus 10.5618 29.0046 19.8437
lradius 107.796
lwrist 19.3496
lhand -51.599 -28.509
lfingers 7.12502
lthumb -24.123 -0.00562353
rfemur -20.8789 10.0446 18.2211
rtibia 34.3521
rfoot -43.8946 -30.4462
rtoes 21.4059
lfemur 2.5141 -15.0094 -22.827
ltibia 26.2591
lfoot -30.0944 28.9928
ltoes -11.8052
855
root 12.1679 15.1934 -3.65816 -182.369 -119.663 179.787
lowerback 6.46286 2.36127 -5.15114
upperback 1.84052 2.62035 -4.31963
thorax -1.74969 1.27594 -1.78103
lowerneck -6.67237 -7.39044 -2.30069
upperneck -1.24928 -9.94823 9.76068
head 1.43177 -4.86953 3.17863
rclavicle -8.09054e-014 2.38542e-014
rhumerus -11.9804 19.5873 -40.5686
rradius 42.7386
rwrist -22.84
rhand -17.8457 5.0221
rfingers 7.12502
rthumb 8.41928 -24.7901
lclavicle -8.09054e-014 2.38542e-014
lhumerus 14.8804 32.8592 25.5875
lradius 108.825
lwrist 24.0925
lhand -52.6652 -28.2867
lfingers 7.12502
lthumb -25.145 0.077303
rfemur -20.8251 9.61081 18.4446
rtibia 34.6887
rfoot -42.2813 -30.7234
rtoes 21.2362
lfemur 3.4175 -14.4145 -23.2653
ltibia 25.8404
lfoot -30.6339 29.2408
ltoes -10.0935
856
root 12.0684 15.1739 -3.61681 -183.07 -118.588 180.413
lowerback 6.21798 2.16033 -4.91651
upperback 1.65686 2.38309 -4.27638
thorax -1.79397 1.16157 -1.84148
lowerneck -7.11644 -6.91328 -1.71381
upperneck -0.717364 -9.3695 9.09659
head 1.57076 -4.56297 2.85729
rclavicle -1.32192e-014 -3.18055e-015
rhumerus -11.9334 19.5328 -40.6848
rradius 43.6051
rwrist -22.8205
rhand -16.9726 6.28348
rfingers 7.12502
rthumb 9.26174 -23.4931
lclavicle -1.32192e-014 -3.18055e-015
lhumerus 19.9598 36.8813 32.2312
lradius 109.952
lwrist 28.81
lhand -54.1891 -21.8343
lfingers 7.12502
lthumb -26.6044 6.31674
rfemur -20.6172 9.48854 18.5263
rtibia 35.0538
rfoot -41.0181 -30.704
rtoes 20.6613
lfemur 4.40217 -13.844 -23.8407
ltibia 25.4459
lfoot -31.2556 29.6148
ltoes -8.47654
857
root 11.9691 15.1592 -3.58072 -183.64 -117.445 180.852
lowerback 5.93507 1.81279 -4.74452
upperback 1.44254 1.9548 -4.06152
thorax -1.85743 0.954025 -1.67522
lowerneck -7.10856 -6.18201 -0.979714
upperneck -0.466569 -8.42789 8.14191
head 1.50346 -4.09949 2.45308
rclavicle 2.84262e-014 4.77083e-015
rhumerus -11.2029 19.9034 -40.8527
rradius 44.4217
rwrist -22.8037
rhand -16.1535 7.19422
rfingers 7.12502
rthumb 10.0521 -22.5457
lclavicle 2.84262e-014 4.77083e-015
lhumerus 26.5925 40.1638 40.9489
lradius 110.744
lwrist 32.4688
lhand -54.9568 -18.6105
lfingers 7.12502
lthumb -27.3388 9.4269
rfemur -20.3756 9.8427 18.6198
rtibia 35.4438
rfoot -39.953 -30.6427
rtoes 19.7094
lfemur 5.39927 -13.2137 -24.3112
ltibia 25.0637
lfoot -32.3811 29.8633
ltoes -5.84456
858
root 11.8729 15.1487 -3.55084 -184.428 -116.166 181.624
lowerback 5.62762 1.41553 -4.72332
upperback 1.22117 1.45059 -3.8518
thorax -1.91597 0.708684 -1.42674
lowerneck -7.20116 -5.36222 -0.167148
upperneck -0.122753 -7.3793 7.07516
head 1.48925 -3.5803 2.00214
rclavicle -1.97294e-014 2.8625e-014
rhumerus -9.96236 20.8038 -41.1101
rradius 45.2276
rwrist -22.5256
rhand -15.6843 8.28503
rfingers 7.12502
rthumb 10.5047 -21.4325
lclavicle -1.97294e-014 2.8625e-014
lhumerus 33.4034 41.9907 50.1651
lradius 111.545
lwrist 33.3904
lhand -55.5743 -17.2169
lfingers 7.12502
lthumb -27.9293 10.726
rfemur -20.2801 10.4169 18.5037
rtibia 35.8498
rfoot -38.9861 -30.3087
rtoes 18.4778
lfemur 6.25066 -12.4838 -24.9458
ltibia 24.705
lfoot -33.9446 30.0131
ltoes -1.57082
859
root 11.7841 15.1425 -3.52976 -185.452 -115.003 182.675
lowerback 5.51742 0.998355 -4.68478
upperback 1.03545 0.90236 -3.73662
thorax -2.04163 0.440634 -1.28892
lowerneck -7.5319 -4.48896 0.790441
upperneck 0.0352262 -6.27271 6.01232
head 1.47265 -3.03531 1.53107
rclavicle -2.99668e-014 1.74931e-014
rhumerus -8.47839 21.5456 -41.5734
rradius 45.9518
rwrist -21.9378
rhand -15.4259 9.12119
rfingers 7.12502
rthumb 10.7539 -20.5835
lclavicle -2.99668e-014 1.74931e-014
lhumerus 40.7515 42.6538 59.8965
lradius 112.202
lwrist 33.1795
lhand -56.7629 -14.8876
lfingers 7.12502
lthumb -29.0651 12.8649
rfemur -20.2294 10.7051 18.2348
rtibia 36.2288
rfoot -38.0699 -29.6094
rtoes 17.7261
lfemur 6.86872 -11.6248 -25.6577
ltibia 24.4242
lfoot -35.0583 30.6091
ltoes 1.47129
